# xmcd
#
# Track frame offsets:
#	150
#	2080
#	17312
#	38402
#	55037
#	70840
#	90470
#
# Disc length: 1425
#
# Revision: 2
# Processed by: cddbd v1.5.1PL0 Copyright (c) Steve Scherf et al.
# Submitted via: EasyCDDAExtractor 6.0.0.1
# Normalized: r1:DSETVAR1
#
DISCID=3f058f07
DTITLE=Various Artist - Kickin' Back With Kenny
DYEAR=1900
DGENRE=Country
TTITLE0=Kenny Chesney - Introduction
TTITLE1=Kenny Chesney - Don't Happen Twice
TTITLE2=Deana Carter - Cover Of A Magazine
TTITLE3=Montcomery Gentry - She Couldn't Change Me
TTITLE4=Keith Urban - You're Not Alone Tonight
TTITLE5=Kellie Coffey - At The End Of The Day
TTITLE6=Kenny Chesney - Me And You
EXTD=
EXTT0=
EXTT1=
EXTT2=
EXTT3=
EXTT4=
EXTT5=
EXTT6=
PLAYORDER=
